# xmcd
#
# Track frame offsets:
#	150
#	14163
#	30453
#	45348
#	61675
#	79808
#	101105
#	135049
#	136283
#	156348
#	171383
#
# Disc length: 2550 seconds
#
# Revision: 0
# Processed by: cddbd v1.4PL0 Copyright (c) Steve Scherf et al.
# Submitted via: dBpowerAMP V4.0
#
DISCID=8709f40b
DTITLE=Mark Wills - Greatest Hits
DYEAR=1900
DGENRE=Country
TTITLE0=Mark Wills - Jacob's Ladder
TTITLE1=Mark Wills - Places I've Never Been
TTITLE2=Mark Wills - I Do (Cherish You)
TTITLE3=Mark Wills - Don't Laugh at Me
TTITLE4=Mark Wills - Wish You Were Here
TTITLE5=Mark Wills - She's In Love
TTITLE6=Mark Wills - Back at One
TTITLE7=Mark Wills - Almost Doesn't Count
TTITLE8=Mark Wills - I'm Not Gonna Do Anything Without You
TTITLE9=Mark Wills - 19 Somethin'
TTITLE10=Mark Wills - When You Think of Me
EXTD=
EXTT0=
EXTT1=
EXTT2=
EXTT3=
EXTT4=
EXTT5=
EXTT6=
EXTT7=
EXTT8=
EXTT9=
EXTT10=
PLAYORDER=
